{"title":"Prem Ratan Dhan Payo {2015} 1/3 DesiScr Rip XviD MP3 {Team DUS}","uid":12763597,"size":1563663538,"categoryP":"video","categoryS":"movies","magnet":"?xt=urn:btih:93c2860741a70fc8421e542688552ab118154c45&amp;dn=Prem+Ratan+Dhan+Payo+%7B2015%7D+1%2F3+DesiScr+Rip+XviD+MP3+%7BTeam+DUS%7D+&amp;tr=udp%3A%2F%2Ftracker.leechers-paradise.org%3A6969&amp;tr=udp%3A%2F%2Fzer0day.ch%3A1337&amp;tr=udp%3A%2F%2Fopen.demonii.com%3A1337&amp;tr=udp%3A%2F%2Ftracker.coppersurfer.tk%3A6969&amp;tr=udp%3A%2F%2Fexodus.desync.com%3A6969","seeders":1,"leechers":0,"uploader":"makintos13","files":1,"time":1447566865,"description":"screens:\r\n \nhttp://imgmak.com/8C\r\n \nhttp://imgmak.com/8K\r\n \nhttp://imgmak.com/8T\r\n \nhttp://imgmak.com/8a\r\n \nhttp://imgmak.com/8p\r\n \nhttp://imgmak.com/8R\r\n \nhttp://imgmak.com/8b\r\n \nhttp://imgmak.com/8x\r\n \nhttp://imgmak.com/8z\r\n\r\n:::::::::::\r\n\r\nYear.............: 2015\r\nSource: ATMOS @ DUS\r\nRipper...........: jnmjy\r\n\r\nGeneral\r\n\r\nFormat                                   : AVI\r\nFormat/Info                              : Audio Video Interleave\r\nFile size                                : 1.46 GiB\r\nDuration                                 : 2h 47mn\r\nOverall bit rate mode                    : Variable\r\nOverall bit rate                         : 1 248 Kbps\r\n\r\nVideo\r\nID                                       : 0\r\nFormat                                   : MPEG-4 Visual\r\nFormat profile                           : Advanced   \r\nFormat settings, BVOP                    : 2\r\nFormat settings, QPel                    : No\r\nFormat settings, GMC                     : No warppoints\r\nFormat settings, Matrix                  : Default (H.263)\r\nCodec ID                                 : XVID\r\nCodec ID/Hint                            : XviD\r\nDuration                                 : 2h 47mn\r\nBit rate                                 : 1 150 Kbps\r\nWidth                                    : 720 pixels\r\nHeight                                   : 304 pixels\r\nDisplay aspect ratio                     : 2.35:1\r\nFrame rate                               : 23.976 fps\r\nColor space                              : YUV\r\nChroma subsampling                       : 4:2:0\r\nBit depth                                : 8 bits\r\nScan type                                : Progressive\r\nCompression mode                         : Lossy\r\nBits/(Pixel*Frame)                       : 0.219\r\nStream size                              : 1.34 GiB (92%)\r\nWriting library                          : XviD 1.2.1 (UTC 2008-12-04)\r\n\r\nAudio\r\nID                                       : 1\r\nFormat                                   : MPEG Audio\r\nFormat version                           : Version 1\r\nFormat profile                           : Layer 3\r\nMode                                     : Joint stereo\r\nMode extension                           : MS Stereo\r\nCodec ID                                 : 55\r\nCodec ID/Hint                            : MP3\r\nDuration                                 : 2h 47mn\r\nBit rate mode                            : Variable\r\nBit rate                                 : 88.2 Kbps\r\nNominal bit rate                         : 96.0 Kbps\r\nChannel(s)                               : 2 channels\r\nSampling rate                            : 32.0 KHz\r\nCompression mode                         : Lossy\r\nStream size                              : 105 MiB (7%)\r\nAlignment                                : Aligned on interleaves\r\nInterleave, duration                     : 36 ms (0.86 video frame)\r\nInterleave, preload duration             : 117 ms\r\nWriting library                          : LAME3.99r","torrent":{"xt":"urn:btih:93c2860741a70fc8421e542688552ab118154c45","amp;dn":"Prem+Ratan+Dhan+Payo+%7B2015%7D+1%2F3+DesiScr+Rip+XviD+MP3+%7BTeam+DUS%7D+","amp;tr":["udp%3A%2F%2Ftracker.leechers-paradise.org%3A6969","udp%3A%2F%2Fzer0day.ch%3A1337","udp%3A%2F%2Fopen.demonii.com%3A1337","udp%3A%2F%2Ftracker.coppersurfer.tk%3A6969","udp%3A%2F%2Fexodus.desync.com%3A6969"],"infoHash":"93c2860741a70fc8421e542688552ab118154c45","infoHashBuffer":{"type":"Buffer","data":[147,194,134,7,65,167,15,200,66,30,84,38,136,85,42,177,24,21,76,69]},"announce":[],"urlList":[]}}